<?xml version="1.0" encoding="UTF-8" standalone="no"?>
<!-- Created with Inkscape (http://www.inkscape.org/) -->

<svg
   width="89.060844mm"
   height="620.4989mm"
   viewBox="0 0 89.060844 620.4989"
   version="1.1"
   id="svg1"
   inkscape:version="1.3 (0e150ed6c4, 2023-07-21)"
   sodipodi:docname="drawing.svg"
   xmlns:inkscape="http://www.inkscape.org/namespaces/inkscape"
   xmlns:sodipodi="http://sodipodi.sourceforge.net/DTD/sodipodi-0.dtd"
   xmlns="http://www.w3.org/2000/svg"
   xmlns:svg="http://www.w3.org/2000/svg">
  <sodipodi:namedview
     id="namedview1"
     pagecolor="#ffffff"
     bordercolor="#000000"
     borderopacity="0.25"
     inkscape:showpageshadow="2"
     inkscape:pageopacity="0.0"
     inkscape:pagecheckerboard="0"
     inkscape:deskcolor="#d1d1d1"
     inkscape:document-units="mm"
     inkscape:zoom="0.13177822"
     inkscape:cx="-113.82761"
     inkscape:cy="379.42538"
     inkscape:window-width="1920"
     inkscape:window-height="1014"
     inkscape:window-x="-8"
     inkscape:window-y="-8"
     inkscape:window-maximized="1"
     inkscape:current-layer="layer1"
     showgrid="true">
    <inkscape:grid
       id="grid53"
       units="px"
       originx="-2332.0673"
       originy="-3741.0194"
       spacingx="26.458333"
       spacingy="13.229167"
       empcolor="#0099e5"
       empopacity="0.30196078"
       color="#0099e5"
       opacity="0.14901961"
       empspacing="5"
       dotted="false"
       gridanglex="30"
       gridanglez="30"
       visible="true" />
  </sodipodi:namedview>
  <defs
     id="defs1">
    <inkscape:path-effect
       effect="sketch"
       id="path-effect68"
       is_visible="true"
       lpeversion="1"
       nbiter_approxstrokes="16"
       parallel_offset="0.6;1"
       strokelength="100"
       strokelength_rdm="0.3;1"
       strokeoverlap="0.3"
       strokeoverlap_rdm="0.3;1"
       ends_tolerance="0.1;1"
       tremble_size="5;1"
       tremble_frequency="1"
       nbtangents="3"
       tgt_places_rdmness="1;1"
       tgtlength="19"
       tgtlength_rdm="0.3;1"
       tgtscale="10" />
    <inkscape:path-effect
       effect="sketch"
       id="path-effect66"
       is_visible="true"
       lpeversion="1"
       nbiter_approxstrokes="16"
       parallel_offset="0.6;1"
       strokelength="100"
       strokelength_rdm="0.3;1"
       strokeoverlap="0.3"
       strokeoverlap_rdm="0.3;1"
       ends_tolerance="0.1;1"
       tremble_size="5;1"
       tremble_frequency="1"
       nbtangents="3"
       tgt_places_rdmness="1;1"
       tgtlength="19"
       tgtlength_rdm="0.3;1"
       tgtscale="10" />
    <inkscape:path-effect
       effect="sketch"
       id="path-effect64"
       is_visible="true"
       lpeversion="1"
       nbiter_approxstrokes="16"
       parallel_offset="0.6;1"
       strokelength="100"
       strokelength_rdm="0.3;1"
       strokeoverlap="0.3"
       strokeoverlap_rdm="0.3;1"
       ends_tolerance="0.1;1"
       tremble_size="5;1"
       tremble_frequency="1"
       nbtangents="3"
       tgt_places_rdmness="1;1"
       tgtlength="19"
       tgtlength_rdm="0.3;1"
       tgtscale="10" />
    <inkscape:path-effect
       effect="sketch"
       id="path-effect62"
       is_visible="true"
       lpeversion="1"
       nbiter_approxstrokes="16"
       parallel_offset="0.6;1"
       strokelength="100"
       strokelength_rdm="0.3;1"
       strokeoverlap="0.3"
       strokeoverlap_rdm="0.3;1"
       ends_tolerance="0.1;1"
       tremble_size="5;1"
       tremble_frequency="1"
       nbtangents="3"
       tgt_places_rdmness="1;1"
       tgtlength="19"
       tgtlength_rdm="0.3;1"
       tgtscale="10" />
    <inkscape:path-effect
       effect="sketch"
       id="path-effect60"
       is_visible="true"
       lpeversion="1"
       nbiter_approxstrokes="16"
       parallel_offset="0.6;1"
       strokelength="100"
       strokelength_rdm="0.3;1"
       strokeoverlap="0.3"
       strokeoverlap_rdm="0.3;1"
       ends_tolerance="0.1;1"
       tremble_size="5;1"
       tremble_frequency="1"
       nbtangents="3"
       tgt_places_rdmness="1;1"
       tgtlength="19"
       tgtlength_rdm="0.3;1"
       tgtscale="10" />
    <inkscape:path-effect
       effect="sketch"
       id="path-effect58"
       is_visible="true"
       lpeversion="1"
       nbiter_approxstrokes="16"
       parallel_offset="0.6;1"
       strokelength="100"
       strokelength_rdm="0.3;1"
       strokeoverlap="0.3"
       strokeoverlap_rdm="0.3;1"
       ends_tolerance="0.1;1"
       tremble_size="5;1"
       tremble_frequency="1"
       nbtangents="3"
       tgt_places_rdmness="1;1"
       tgtlength="19"
       tgtlength_rdm="0.3;1"
       tgtscale="10" />
    <inkscape:path-effect
       effect="sketch"
       id="path-effect56"
       is_visible="true"
       lpeversion="1"
       nbiter_approxstrokes="16"
       parallel_offset="0.6;1"
       strokelength="100"
       strokelength_rdm="0.3;1"
       strokeoverlap="0.3"
       strokeoverlap_rdm="0.3;1"
       ends_tolerance="0.1;1"
       tremble_size="5;1"
       tremble_frequency="1"
       nbtangents="3"
       tgt_places_rdmness="1;1"
       tgtlength="19"
       tgtlength_rdm="0.3;1"
       tgtscale="10" />
  </defs>
  <g
     inkscape:label="Layer 1"
     inkscape:groupmode="layer"
     id="layer1"
     transform="translate(-617.02614,-989.81137)">
    <path
       style="fill:none;stroke:#666666;stroke-width:0.6;stroke-linecap:round;stroke-miterlimit:3.9;stroke-dasharray:none"
       d="m 624.89265,1005.5134 c 4.7916,18.2922 8.43365,37.3413 11.78238,56.4785 5.04978,-5.2018 10.05591,-10.3905 15.06754,-15.6045 m -16.59985,10.3715 c 7.88808,-8.3092 16.04844,-16.4453 24.39757,-24.4754 9.04892,8.8905 18.31958,17.9055 27.70563,26.9592 m -14.4126,-10.6253 c 3.43902,3.5745 6.95495,7.1425 10.53172,10.6978 4.24108,-19.5486 9.35963,-39.2805 14.47587,-59.53601 m -75.21611,4.32901 c 4.58179,18.616 8.42205,36.7338 12.29577,54.9157 8.90889,-8.695 17.83318,-17.3605 27.0149,-25.8209 0.61594,0.6157 1.23304,1.2323 1.85138,1.85 m -22.20378,12.8123 c 5.55398,-6.0023 11.36315,-11.9541 17.38349,-17.8925 9.15368,8.6096 18.79553,17.2498 28.77074,25.7892 2.46309,-7.5423 5.04929,-15.1218 7.72385,-22.768 m -8.4466,27.1516 c 3.78321,-17.7714 8.81684,-36.9612 14.5428,-57.057 m -84.23118,-8.6758 c 3.65526,20.5436 8.75781,40.8885 14.57044,61.04 3.06128,-2.8445 6.14737,-5.6958 9.25347,-8.5539 m -5.82889,4.8159 c 0.3709,1.6061 0.73481,3.2183 1.092,4.8364 8.96935,-8.8508 17.55707,-17.365 25.86744,-25.5923 6.18446,7.004 12.21531,14.1669 18.13552,21.4683 m -6.12245,-7.4325 c 5.96304,5.8963 11.7898,11.6398 17.51998,17.2567 4.69039,-20.1041 8.77527,-41.0014 12.87833,-62.27623 m -80.07668,-0.18487 c 3.47397,19.393 7.76624,38.227 12.50452,57.354 8.60221,-7.7015 17.36661,-15.2965 26.21157,-22.5979 m -18.82553,20.8816 c 7.06472,-6.4702 13.87527,-13.0352 20.53877,-19.6644 8.89737,8.7874 17.53256,17.4605 26.16057,26.0925 1.21107,-5.5134 2.42071,-11.035 3.65177,-16.5582 m -11.26169,9.1904 c 0.885,0.8598 1.76594,1.7163 2.64302,2.5695 5.25105,-18.3022 9.4644,-37.48 13.54193,-57.0372 m -80.62093,0.597 c 4.39743,18.0039 8.41643,36.7858 12.67753,56.5043 7.11724,-5.8248 14.30245,-11.3867 21.64792,-16.6619 m -11.64652,8.6054 c 6.56129,-6.4577 13.22219,-12.962 19.88576,-19.389 8.4721,9.4675 16.94852,19.0599 25.23004,29.0314 0.42046,-1.9565 0.83472,-3.901 1.24167,-5.8319 m -6.95244,0.7571 c 2.2686,2.1631 4.52172,4.3422 6.75991,6.5351 4.83753,-20.9628 9.01483,-41.3163 12.69729,-61.74867 m -80.45685,-0.50373 c 3.83219,20.6663 8.59423,41.0147 13.8991,61.6962 7.65226,-6.8103 15.43452,-13.5408 23.30141,-20.1152 m -15.56437,19.615 c 7.87428,-7.4386 15.61573,-15.2515 23.29217,-23.3689 8.83526,8.296 17.58442,16.1887 26.35088,23.7845 2.08115,-9.7713 4.17156,-19.7015 6.31174,-29.7489 m -9.57427,26.5566 c 0.24331,0.2504 0.48665,0.5008 0.73003,0.7512 4.7264,-19.026 9.59286,-37.9653 14.68092,-56.2945 m -85.59815,-3.27179 c 4.26717,20.17049 9.12831,39.78259 14.72148,59.04569 5.42812,-5.184 10.94185,-10.4088 16.5467,-15.6661 m -19.02326,16.0987 c 9.07554,-8.932 18.1152,-17.7565 27.28835,-26.5843 9.34271,8.6479 18.8239,17.2924 28.62251,25.8166 1.65764,-5.3137 3.37331,-10.6494 5.16102,-16.0162 m -11.00187,16.3854 c 2.01335,1.9435 4.01856,3.8845 6.01642,5.8221 4.85146,-19.9379 9.31816,-40.0472 13.69541,-60.5979 m -79.26851,-1.0824 c 3.2449,17.2759 7.36294,35.8097 11.86119,54.7423 9.30054,-8.3208 18.77244,-16.4619 28.26656,-24.6832 1.23159,1.2216 2.46355,2.4419 3.69556,3.6603 m -24.39522,18.5487 c 5.66991,-5.7885 11.33223,-11.6829 16.99028,-17.7069 8.83501,8.2323 17.65958,16.1483 26.48629,23.6569 2.58861,-11.9795 5.17891,-24.2825 7.77982,-36.9736 m -4.56422,34.5353 c 3.7574,-17.2663 8.08935,-34.3664 12.72174,-51.4545 m -75.69258,-11.60542 c 4.79558,21.05072 8.7073,41.94682 12.41535,63.71252 6.35661,-5.853 12.67171,-11.5287 19.00788,-16.9329 m -15.10599,16.7628 c 7.71734,-7.9495 15.48328,-15.7958 23.2264,-23.5464 8.60942,9.0211 17.19063,18.1606 25.64544,27.4085 0.0148,-0.068 0.0296,-0.1368 0.0444,-0.2051 m -10.1471,-9.5274 c 3.61445,3.3914 7.21748,6.8221 10.8141,10.282 5.28581,-21.4969 10.45101,-42.4436 15.90573,-63.65685 m -79.92529,2.27335 c 3.54534,21.2616 7.79851,41.8491 11.78961,62.2498 2.53841,-2.6761 5.06901,-5.3576 7.58684,-8.0423 m -14.45527,3.0945 c 0.39402,1.9374 0.79222,3.8629 1.19459,5.7768 8.86836,-8.7224 17.90925,-17.923 27.12108,-27.4993 9.21183,8.0625 18.59461,15.7493 28.14675,23.1627 0.3307,-1.2332 0.66282,-2.4688 0.99633,-3.7065 m -16.91138,-13.3771 c 4.06366,4.0012 8.19392,8.1061 12.37832,12.2966 4.62878,-19.5163 9.8768,-38.0542 15.26249,-56.31817 m -76.84828,4.40997 c 3.8949,20.9094 8.52016,40.8499 13.57582,60.8389 5.20409,-4.9033 10.4577,-9.801 15.74912,-14.6535 m -11.14958,10.1773 c 8.81204,-8.5771 17.51068,-17.1912 26.15095,-25.7995 8.77646,8.8949 17.4927,17.7958 26.20643,26.7478 0.64431,-2.7693 1.28848,-5.5358 1.93323,-8.2991 m -13.90637,-1.4107 c 2.90241,2.8198 5.76315,5.6597 8.58571,8.5193 4.97441,-20.6399 8.84951,-40.7105 12.16621,-60.24183 M 619.7494,991.855 c 3.99457,20.6214 8.47081,41.6992 13.00465,62.9597 7.19357,-6.9086 14.39994,-13.7765 21.57468,-20.6325 m -12.40012,18.4464 c 8.4634,-7.8779 16.57126,-15.6026 24.49097,-23.1406 8.76327,9.2978 17.29619,18.8242 25.82554,28.6242 1.20424,-5.1502 2.40772,-10.242 3.63278,-15.271 m -16.37726,16.3311 c 1.44409,1.5032 2.89511,3.0019 4.35277,4.4966 4.88854,-20.5729 10.48782,-41.5772 16.49274,-62.539 m -81.36899,-11.01856 c 3.45416,20.01016 8.11321,41.37246 12.8586,62.86106 1.72832,-1.6328 3.45771,-3.264 5.18663,-4.8953 m -0.0772,2.2024 c 0.63471,2.648 1.23701,5.295 1.80847,7.9405 8.89079,-8.9481 17.13829,-17.9282 24.89142,-26.9876 7.75314,8.5794 15.01192,17.0795 21.92528,25.4527 0.4093,-5.1929 0.75971,-10.4074 1.06173,-15.6469 m -6.8677,11.0255 c 3.37936,3.2959 6.72569,6.5744 10.04815,9.8399 5.34163,-20.0897 10.17967,-40.4541 15.4013,-60.6743 m -84.80774,-1.2996 c 3.73146,18.1339 7.93971,36.6095 12.61776,55.6038 4.59553,-3.9369 9.24234,-7.8172 13.94018,-11.6345 m -12.46549,17.1652 c 7.84868,-8.106 16.29822,-16.4996 25.17289,-25.1013 9.4053,8.5228 19.28808,16.8118 29.43918,24.9616 1.82452,-5.5226 3.69897,-11.0712 5.60657,-16.6381 m -15.41713,8.1396 c 1.7126,1.6782 3.44456,3.3799 5.19475,5.1035 4.55562,-20.5342 10.33839,-39.5986 16.72719,-58.13348 m -73.27969,7.06518 c 3.57935,18.3062 7.42937,36.6597 11.32941,55.0155 4.57947,-4.5453 9.16484,-9.0903 13.74717,-13.6369 m -14.05538,8.158 c 7.8153,-7.8703 15.90989,-16.0582 24.10125,-24.4005 8.7027,8.7759 17.51463,17.3776 26.21692,26.0007 0.29169,-1.2933 0.58217,-2.5864 0.87119,-3.879 m -9.84254,-7.5198 c 3.02054,3.1663 6.10054,6.3513 9.22878,9.5517 4.14311,-19.0707 9.17292,-37.857 14.20436,-56.60733 m -81.40563,6.06303 c 3.94321,19.9771 8.45608,38.825 13.45232,57.2104 7.40917,-7.3971 14.93719,-14.908 22.57353,-22.4512 m -18.10599,14.4426 c 7.47798,-7.4533 14.98069,-14.8626 22.51674,-22.2278 8.92232,8.9189 17.89139,17.8997 26.92149,26.943 2.45638,-9.4107 4.95088,-18.7823 7.49057,-28.1147 m -10.95253,26.5163 c 5.69613,-21.6531 11.36886,-42.7306 17.81902,-63.78265 m -30.71869,50.00845 21.61152,21.6115 m 2.36246,-46.3518 6.33442,-26.52201 m -10.9341,45.78071 6.5827,-27.5615"
       id="path55"
       inkscape:path-effect="#path-effect56"
       inkscape:original-d="m 621.85812,995.12048 13.14186,63.21282 26.45834,-26.4583 26.45833,26.4583 15.35609,-64.29543"
       sodipodi:nodetypes="ccccc"
       inkscape:export-filename="..\..\path55.svg"
       inkscape:export-xdpi="96"
       inkscape:export-ydpi="96" />
    <path
       style="fill:none;stroke:#666666;stroke-width:0.600001;stroke-linecap:round;stroke-miterlimit:3.9;stroke-dasharray:none"
       d="m 643.2302,1088.7976 c 6.9381,-0.2231 13.7406,-0.357 20.44219,-0.4287 8.89463,-0.095 17.6115,-0.081 26.2317,-0.02 -9.01868,0.061 -18.13402,0.1674 -27.26492,0.257 -0.0892,2.5517 -0.17969,5.102 -0.26954,7.6495 m 8.95141,-10.9294 c -4.02135,-0.066 -8.01057,-0.1119 -11.97105,-0.14 -0.0893,19.8344 0.5592,40.1233 1.50521,60.5121 m -3.48952,-15.1498 c -0.31298,7.0973 -0.47655,14.1819 -0.53421,21.237 -8.88987,-0.2029 -17.62177,-0.4498 -26.27493,-0.7713 8.98217,-0.3214 18.04302,-0.7172 27.1034,-1.2182 m -14.04383,0.9124 c 11.7594,0.3777 23.23788,0.5695 34.61633,0.7035 m -37.22955,-68.0311 c 5.81376,-0.1475 11.76377,-0.2679 17.83284,-0.3759 8.93007,-0.159 18.11794,-0.291 27.50886,-0.4425 -8.24797,-0.1515 -16.29287,-0.3226 -24.18944,-0.5596 0.48369,4.4982 1.00813,8.9783 1.56544,13.4336 m 4.24917,-7.6816 c -2.6428,0.072 -5.2624,0.1177 -7.86019,0.1384 -0.30127,22.2267 1.01091,42.6025 3.03673,61.9491 -0.8259,-0.1114 -1.65058,-0.2246 -2.47411,-0.3395 m -4.07981,-15.7361 c -0.14498,4.9542 -0.20927,9.8974 -0.20259,14.8296 -8.80754,-0.036 -17.38996,-0.1067 -25.80208,-0.2121 11.63778,-0.1328 23.54651,-0.3206 35.6162,-0.5625 m -13.23351,1.3644 c 11.78051,-0.1125 23.2238,0.068 34.41083,0.5025 m -43.69339,-61.0027 c 7.31869,0.1336 14.53254,0.1493 21.66834,0.065 8.83071,-0.1041 17.54187,-0.3612 26.18427,-0.7373 -8.99649,-0.3761 -18.06175,-0.8712 -27.14502,-1.4514 -0.17801,5.559 -0.36422,11.0794 -0.54303,16.5714 m 6.39522,-21.3209 c -2.59136,0.1171 -5.16795,0.2241 -7.73068,0.323 -0.19055,22.9076 0.66262,45.2111 1.97001,68.2599 -5.39601,0.2602 -10.76128,0.5709 -16.10618,0.9557 m 15.94052,-4.2977 c 0.125,2.5773 0.23119,5.1475 0.32074,7.7114 -8.50859,0.081 -17.21777,0.085 -26.03741,0.037 16.03545,-0.086 31.70576,-0.342 47.55282,-0.6114 m -45.17877,-70.7564 c 6.51132,0.1626 12.90816,0.2304 19.22115,0.2201 8.95814,-0.014 17.74743,-0.1861 26.45535,-0.4666 -8.93096,-0.2805 -17.9433,-0.67 -26.94951,-1.1202 -0.13044,5.8445 -0.25789,11.6593 -0.35256,17.4608 m 3.23125,-18.9536 c -1.87434,0.018 -3.75301,0.046 -5.63525,0.082 0.74587,22.4593 1.03444,46.0834 1.96649,71.154 -3.70434,0.5301 -7.38887,1.1047 -11.04766,1.7254 m 14.78061,-15.5783 c -0.11942,3.2724 -0.22876,6.5401 -0.33115,9.8071 -9.10885,0.4152 -18.16212,0.8248 -27.23024,1.3184 12.21139,0.7033 24.39264,1.5775 36.34005,2.8824 m -14.86718,1.0218 c 7.71005,-0.2095 15.32789,-0.3272 22.86299,-0.3846 m -36.7278,-67.9606 c 5.41962,0.155 10.90633,0.287 16.45265,0.4088 8.87416,0.1948 17.90091,0.3631 27.0495,0.5568 -8.4903,0.1936 -16.85875,0.4125 -25.13608,0.7084 0.4554,7.6575 0.97511,15.3693 1.5409,23.166 m 5.25451,-20.4417 c -0.97682,0.021 -1.95477,0.038 -2.93378,0.052 0.38194,22.3658 0.23984,43.2084 0.14496,63.1162 -8.85739,-0.8563 -17.70723,-1.8622 -26.51294,-2.98 0.57146,-0.072 1.14312,-0.1451 1.71496,-0.2184 m 22.25875,0.4208 c 2.5e-4,0.08 4.9e-4,0.1601 7.4e-4,0.2402 -8.79138,0.2104 -17.55559,0.4364 -26.28593,0.7223 16.93585,0.5436 33.99411,1.3039 51.22081,2.5862 M 633.547,1083.9402 c 7.85963,0.07 15.80634,0.059 23.84789,-0.023 9.07301,-0.092 18.26674,-0.2739 27.59233,-0.5279 -8.31329,-0.2539 -16.49473,-0.5802 -24.53318,-0.9619 0.1718,1.8561 0.35053,3.7096 0.53629,5.5606 m 9.74974,-4.0508 c -4.65103,-0.1072 -9.3076,-0.1978 -13.95943,-0.2784 0.74561,21.679 1.59077,43.5653 3.52401,65.0127 -2.90924,-0.087 -5.79572,-0.1831 -8.65645,-0.2904 m 8.21023,-8.0659 c 0.0656,4.8814 0.10571,9.7547 0.12474,14.6161 -8.78545,-0.1392 -17.63822,-0.3166 -26.53373,-0.5545 15.52461,-0.4223 30.91443,-1.0353 46.30689,-1.9636 m -44.25967,-70.6435 c 7.48982,-0.3794 15.13012,-0.542 22.88562,-0.5493 8.86846,-0.01 17.88756,0.1864 27.00458,0.4923 -8.52186,0.306 -16.94581,0.7231 -25.32458,1.1595 0.36565,7.6799 0.76241,15.373 1.16015,23.0268 m 2.84457,-16.9165 c -2.28153,-0.04 -4.56369,-0.089 -6.84639,-0.1473 0.049,21.4881 0.0475,42.1179 0.0648,61.3861 -7.23344,-0.9129 -14.46484,-1.9726 -21.69175,-3.1968 m 23.40662,3.1504 c -0.0318,1.7157 -0.058,3.433 -0.0789,5.1518 -8.92572,-0.077 -17.71362,-0.1164 -26.39818,-0.137 16.05784,-0.037 32.44803,-0.014 48.97171,-0.045 m -36.1086,-74.7275 c 6.04879,0.2525 12.02563,0.4924 17.94631,0.7435 8.88545,0.3769 17.64443,0.7789 26.33033,1.2866 -8.95298,0.5077 -17.97902,1.1211 -27.02474,1.9205 -0.1637,6.9585 -0.33769,14.0145 -0.50175,21.1983 m 6.9484,-19.4415 c -1.69544,-0 -3.38981,-0 -5.08334,-10e-4 -0.39672,22.0741 -0.64658,44.5422 -1.29194,67.3489 -0.0523,0 -0.10462,0 -0.15693,0.01 m 0.68237,-14.2078 c 0.0727,4.8801 0.1339,9.7997 0.18866,14.7488 -8.72344,-0.1441 -17.46663,-0.1976 -26.20224,-0.2153 15.44837,-0.031 30.9196,0.047 46.55657,-0.054 m -37.91736,-64.6968 c 6.24795,0.1242 12.5616,0.1857 18.91351,0.1985 8.63354,0.017 17.33779,-0.055 26.04388,-0.1837 -8.9328,-0.1283 -17.86375,-0.3121 -26.8617,-0.5169 -0.0171,0.8268 -0.0349,1.6533 -0.0533,2.4797 m 8.82315,-1.5416 c -4.76872,0.095 -9.51221,0.1175 -14.23054,0.074 0.2246,21.8461 0.98723,42.2706 2.27915,61.8391 -1.13471,-0.1356 -2.26784,-0.2738 -3.39939,-0.4144 m 0.0764,-21.6961 c -0.12814,5.6712 -0.19127,11.4439 -0.20139,17.3003 -8.83467,-0.01 -17.54931,0.1754 -26.1848,0.4877 17.06299,0.5918 34.41025,1.6498 51.76355,2.7659 m -47.33394,-61.3076 c 8.41021,0.3792 16.94746,0.59 25.59,0.706 8.94636,0.12 18.00554,0.1386 27.1534,0.1375 -8.49102,-10e-4 -16.89337,-0.022 -25.23118,0.02 0.0654,1.2036 0.13203,2.4083 0.19977,3.6144 m 19.75141,-7.7048 c -5.4792,0.048 -10.98147,0.088 -16.50176,0.1241 0.0689,22.1937 -0.14789,44.3303 -0.33152,66.6583 -0.0444,6e-4 -0.0888,0 -0.13317,0 m -3.29933,-21.822 c 0.13589,6.8216 0.15,13.7014 0.0598,20.6387 -8.93599,0.1426 -18.0461,0.381 -27.29273,0.7131 14.15408,0.5602 27.91983,1.3872 41.47765,2.4714 m -43.51736,-73.2198 c 8.46042,-0.094 16.99931,-0.1136 25.5888,-0.077 8.81066,0.038 17.67454,0.1348 26.56156,0.2717 -8.75188,0.1369 -17.48062,0.3136 -26.21634,0.5108 0.0485,5.2184 0.0946,10.4436 0.13252,15.6718 m 17.56184,-15.6194 c -3.57282,0.031 -7.18469,0.078 -10.82954,0.1437 0.53915,22.4355 -0.0698,45.4996 -0.57395,69.4421 -3.80547,0.3196 -7.60797,0.6642 -11.40146,1.035 m 3.19892,-8.4219 c -0.045,4.1869 -0.0627,8.3563 -0.0554,12.5114 -8.80381,0.087 -17.49249,0.1086 -26.08708,0.098 16.05893,-0.019 32.41448,-0.1403 48.94887,-0.1794 m -44.88835,-76.6715 c 7.39685,-0.3589 14.94991,-0.5426 22.60696,-0.6082 8.74113,-0.075 17.61777,0 26.55227,0.1518 -7.20087,0.1222 -14.36215,0.2914 -21.52782,0.4596 m 21.99611,5.1644 c -6.44729,-0.062 -13.08608,-0.1306 -19.89391,-0.2122 -0.5607,21.7775 -2.98586,43.4087 -6.45268,64.6316 -4.78855,-0.1549 -9.61378,-0.3242 -14.47027,-0.5097 m 18.78273,-11.0318 c 0.19974,5.6574 0.35015,11.2888 0.46794,16.9021 -8.6326,0.085 -17.34728,0.1245 -26.07732,0.1503 17.76528,0.051 35.4695,0.048 53.64179,0.2419 m -57.55037,-74.7001 c 8.20751,0.083 16.51059,0.2353 24.90863,0.4716 9.02427,0.2539 18.15817,0.6053 27.40093,1.0737 -7.00783,0.3911 -13.93982,0.8637 -20.79643,1.4294 m 14.94884,5.8097 c -7.08513,0.125 -13.969,0.1536 -20.68567,0.1013 0.30622,21.8792 2.3644,42.9103 5.01904,63.6158 -0.67072,-0.047 -1.34071,-0.093 -2.01005,-0.1405 m -4.04139,-23.6281 c -0.18937,6.8479 -0.22292,13.8855 -0.12639,21.0736 -8.70012,0.066 -17.20149,0.3617 -25.55276,0.8141 16.32705,0.7951 33.11796,2.0736 50.10845,3.4352 m -42.56239,-66.3388 c 8.49062,-0.017 17.03826,-0.024 25.62157,-0.025 8.80432,-0 17.64619,0 26.50257,0.01 -7.7193,0.01 -15.42738,0.011 -23.13987,0.015 m 15.14348,-3.9365 c -7.0493,0.2485 -14.00574,0.3913 -20.90432,0.4599 -0.35867,18.9418 -0.27328,37.3134 -0.48762,55.7801 m 0.72836,-19.2645 c -0.40052,9.0514 -0.56045,18.1782 -0.57117,27.3546 -8.82977,0.017 -17.52118,0.08 -26.15585,0.1666 6.22514,0.06 12.47741,0.1305 18.72983,0.2048 m -18.47328,7.1099 c 16.10918,0.524 32.60188,0.2934 49.42843,-0.3295 m -50.12667,-70.5151 c 8.77826,-0 17.57359,0.024 26.39094,0.081 8.88296,0.058 17.78827,0.1466 26.72099,0.2665 -8.70617,0.1198 -17.38494,0.2709 -26.03124,0.4532 0.12705,6.6052 0.27158,13.2272 0.43558,19.8662 m 5.56992,-21.2623 c -3.15541,-0.066 -6.31137,-0.1191 -9.46521,-0.1612 0.64794,21.7626 1.39307,44.0318 3.06562,66.2336 -4.71841,0.035 -9.38708,0.067 -13.99571,0.088 m 16.17825,-12.5419 c -0.001,3.1874 -0.0297,6.3766 -0.0853,9.567 -8.97189,-0.064 -18.14816,-0.1198 -27.5296,-0.1825 15.44203,-0.1174 30.16654,-0.2596 44.16834,-0.5284 m -33.58624,-61.0937 c 5.88423,-0.1451 11.64088,-0.2937 17.29187,-0.4582 8.85343,-0.2578 17.44753,-0.5548 25.86668,-0.9394 -9.21974,-0.3846 -18.61443,-0.8568 -28.09971,-1.4649 -0.60357,7.4435 -1.28159,14.7753 -1.9712,21.9594 m 3.01524,-24.8626 c -0.81721,-0.029 -1.63395,-0.057 -2.45026,-0.083 -0.40557,21.3295 -0.47843,43.761 -0.79631,66.241 -8.37564,0.1616 -16.78565,0.3299 -25.26034,0.4498 m 27.84163,4.5729 c 0.006,0.4625 0.0123,0.9244 0.0183,1.3857 -8.70177,0.1801 -17.43106,0.137 -26.16358,-0.086 16.40574,-0.41 32.80051,-1.4293 49.33608,-2.785 m -11.25569,1.2441 h -30.56328 m 16.11707,0 h 27.26797 m -48.88633,0 h 28.33672"
       id="path56"
       inkscape:path-effect="#path-effect58"
       inkscape:original-d="m 634.99997,1084.7917 h 26.45833 26.45833 -26.45833 v 66.1458 h -26.45833 52.91666"
       sodipodi:nodetypes="ccccccc" />
    <path
       style="fill:none;stroke:#666666;stroke-width:0.600001;stroke-linecap:round;stroke-miterlimit:3.9;stroke-dasharray:none"
       d="m 636.70667,1191.0249 c 0.0591,1.2955 0.15371,3.4849 0.24398,6.286 0.16097,4.9948 0.28578,11.194 0.28806,18.8524 0.005,15.706 -0.52389,32.031 -0.94918,44.3895 3.43554,0.037 6.867,0.073 10.29971,0.1033 m -13.55509,-12.08 c -0.0633,3.1245 -0.10075,6.0231 -0.12251,8.6146 14.38019,-0.1382 29.16208,-0.028 44.17561,0.1966 m -46.17989,-67.1403 c -0.0533,1.2076 -0.11497,2.7044 -0.17688,4.4434 -0.17927,5.0348 -0.32951,11.2196 -0.37061,18.7435 -0.0842,15.403 0.33456,30.9907 0.66569,42.5598 2.31854,-0.115 4.63839,-0.2364 6.9582,-0.3647 m -4.13333,-8.9981 c 0.16548,3.7437 0.28993,7.1944 0.38521,10.1984 17.64758,0.4246 34.77284,0.5061 52.00236,0.696 m -53.71176,-73.3628 c -0.007,0.2174 -0.11032,3.1262 -0.1602,7.741 -0.0537,4.9659 -0.0298,11.2601 0.21405,18.7863 0.51792,15.9823 1.81687,30.9511 3.14805,43.2838 4.99784,-0.1223 10.03453,-0.2621 15.10269,-0.4257 m -17.00773,-1.8014 c -0.0904,2.9764 -0.14452,5.6994 -0.17589,8.1277 14.83903,0.1099 30.42603,-0.6398 46.47632,-1.9874 m -49.98947,-71.2678 c -0.0361,1.234 -0.0762,2.7746 -0.11101,4.5607 -0.0988,5.076 -0.14196,11.4558 -0.006,19.064 0.28685,16.0821 1.26084,31.1752 2.25402,43.5531 2.46286,-0.045 4.93345,-0.092 7.41083,-0.1421 m -3.34865,-8.5204 c 0.0735,3.5884 0.10768,6.9102 0.11986,9.8593 14.39102,0.064 28.29685,0.5639 41.87458,1.4244 m -39.7178,-64.5164 c 0.0452,-1.6455 0.0618,-2.4027 0.0618,-2.4062 0,0 0,0 0,0 1.7e-4,0.01 0.0804,3.0933 0.14674,8.0069 0.0693,5.1378 0.10776,11.4209 0.0576,18.951 -0.10331,15.4991 -0.55376,30.6591 -0.91962,42.1296 5.97973,-0.4026 11.95007,-0.8471 17.92834,-1.3221 m -19.71755,-10.4528 c -0.0501,2.6298 -0.0822,5.0692 -0.10242,7.2814 16.47779,0.6564 33.55476,0.9594 50.97438,1.4925 m -49.17595,-65.4112 c 0.0592,1.2207 0.18035,3.7905 0.30074,7.1465 0.18644,5.1975 0.34484,11.494 0.40931,19.2082 0.12824,15.3421 -0.18068,32.0795 -0.35943,43.6926 3.8901,-0.062 7.78282,-0.1278 11.68627,-0.1942 m -16.73379,-13.0251 c 0.14549,3.1341 0.25291,6.0197 0.33387,8.5783 17.06194,0.2142 33.41316,-0.1882 49.627,-0.8914 m -52.84533,-72.9384 c 0.0359,0.9557 0.13991,3.7408 0.26535,7.6462 0.17596,5.4788 0.34266,11.4939 0.54664,19.8472 0.46285,18.9541 0.72323,31.9822 1.31423,48.2422 4.43824,0.5742 8.89979,1.2023 13.3926,1.8863 m -9.61022,-14.3946 c -0.113,3.0966 -0.21021,6.0032 -0.29202,8.5677 14.20514,0.6934 28.57287,1.3602 42.7782,2.4153 m -43.59979,-66.42 c 0.008,1.3239 0.0174,3.3553 0.0169,5.8617 -0.001,4.9409 -0.0402,11.3049 -0.18174,18.889 -0.30371,16.2742 -0.95183,31.4012 -1.662,44.2916 3.0666,0.024 6.1213,0.048 9.16471,0.067 m -9.64122,-11.0198 c -0.0551,3.3732 -0.082,6.4717 -0.0927,9.2283 16.64818,0.406 33.87516,0.6649 51.47317,1.127 m -45.74418,-64.0076 c 0.0562,-2.8192 0.0749,-4.0938 0.0749,-4.0984 0,0 0,0 0,0 1.2e-4,0.01 0.0544,3.0881 0.10961,7.9653 0.0583,5.1507 0.10405,11.2646 0.11759,18.7106 0.0256,14.0447 -0.0871,31.061 -0.12727,40.859 7.28251,-0.7664 14.57613,-1.6295 21.90167,-2.5678 m -24.41578,-5.8213 c 6.8e-4,0.2215 0.0245,6.4128 0.0252,6.6344 17.49866,0.4348 35.10834,0.9708 52.88282,1.9508 m -58.4392,-72.0261 c 0.006,1.1779 0.0222,3.806 0.0626,7.1034 0.0615,5.0187 0.17819,11.5546 0.41784,19.0413 0.52128,16.2843 1.41349,30.5161 2.4644,42.9319 4.27079,-0.1593 8.56975,-0.3304 12.89788,-0.5119 m -16.544,-6.645 c 0.0391,1.1261 0.24314,7.1168 0.28228,8.2429 17.09691,-0.3096 34.19855,-0.4691 51.72379,-0.752 m -48.44377,-62.008 c 0.0295,-2.2476 0.0392,-3.2637 0.0393,-3.2678 0,0 0,0 0,0 8e-5,0.01 0.038,3.0018 0.0675,7.8276 0.0308,5.0418 0.0452,11.2648 0.0134,18.794 -0.0656,15.561 -0.3079,30.9164 -0.51008,42.6482 6.57466,-0.3217 13.14244,-0.6941 19.71403,-1.1269 m -20.54799,-10.8442 c -0.0699,2.2997 -0.12036,4.4682 -0.15728,6.4558 17.10473,-0.5831 34.92242,-0.1498 53.05106,0.588 m -54.3247,-61.0014 c 0.003,-1.1391 0.006,-2.2319 0.009,-3.3711 0,0 0,0 0,0 -0.0114,-4.3954 0.0289,12.1244 0.0175,7.7291 -0.002,-0.9485 0.029,19.2631 0.0271,18.3146 0.0126,12.0514 0.0171,28.0804 0.0298,40.1318 6.74197,-0.8686 13.48585,-1.8653 20.23362,-3.0045 m -18.51997,1.6422 c -0.0442,2.3849 -0.0747,4.614 -0.0957,6.6472 17.39324,-0.1454 35.32654,-0.1441 53.52586,-0.1505 m -49.41401,-78.1835 c 0.0325,-1.0611 0.0457,-1.5548 0.0458,-1.5575 0,-10e-5 0,-10e-5 0,0 1.9e-4,0.01 0.091,3.1664 0.1732,8.2687 0.0861,5.3406 0.14413,11.9092 0.11752,19.9699 -0.0543,16.4484 -0.45662,33.7068 -0.77395,47.0648 5.47059,0.53 10.93507,1.1383 16.40725,1.8456 m -14.89221,-7.5824 c -0.009,0.467 -0.12439,6.8178 -0.13334,7.2848 14.19471,0.035 28.44362,0.2388 42.59543,0.595 m -43.32112,-68.8302 c 0.004,-0.3058 0.008,-0.6054 0.0127,-0.9112 0,0 0,0 0,0 10e-5,0.01 0.0446,2.9425 0.104,7.7344 0.0655,5.2862 0.12584,10.9517 0.20115,18.867 0.16747,17.6018 0.2685,29.9296 0.48972,44.0729 5.20185,-0 10.41691,-0.018 15.65054,-0.052 m -14.36642,-6.1338 c -0.10145,2.7869 -0.18464,5.382 -0.25302,7.7003 14.40906,0.1778 29.10645,0.057 43.7631,-0.1992 m -50.41126,-70.4451 c -2.6e-4,0.6814 -0.002,3.8258 0.0189,7.7784 0.0267,5.0483 0.089,11.4995 0.23661,18.8562 0.31873,15.8819 0.90543,29.5371 1.57073,41.1076 4.59237,-0.4403 9.20555,-0.9173 13.83946,-1.4267 m -16.63938,-12.2123 c -0.0642,2.8414 -0.10736,5.5009 -0.1368,7.9 17.33603,-0.3002 35.20597,0.2354 53.28628,1.1351 m -49.54625,-63.4255 c -0.0155,1.2554 -0.0462,3.9119 -0.0621,7.2989 -0.0247,5.247 -0.0134,11.8266 0.10115,19.5758 0.24275,16.4281 0.85444,31.573 1.486,44.2643 4.11941,0 8.25307,0.017 12.39885,0.044 m -8.63302,-12.5459 c 0.0323,3.089 0.0551,5.951 0.0716,8.5021 15.84032,0.1163 31.51378,0.188 47.1387,0.3052 m -59.37727,-0.8912 h 30.56328 m 8.42893,0 h 27.26796 m -39.91408,0 h 28.33671"
       id="path58"
       inkscape:path-effect="#path-effect60"
       inkscape:original-d="m 634.99998,1190.625 c 10e-6,-23.1953 -1e-5,39.2835 -1e-5,66.1458 h 52.91666"
       sodipodi:nodetypes="ccc"
       transform="translate(7.5162219,-13.945879)" />
    <path
       style="fill:none;stroke:#666666;stroke-width:0.600001;stroke-linecap:round;stroke-miterlimit:3.9;stroke-dasharray:none"
       d="m 636.70667,1293.7587 c 0.87685,19.2067 0.54066,39.212 -0.0804,59.291 6.71905,0.072 13.4034,0.152 20.0925,0.2106 m -22.28395,-3.3511 c 13.95059,-0.239 28.32209,-0.2128 42.9524,-0.048 m -46.47982,-56.8802 c -0.83313,18.8926 -0.60758,37.6958 -0.14379,56.0921 5.76965,-0.2422 11.55976,-0.5194 17.34968,-0.8396 m -14.04383,0.9124 c 18.00569,0.5783 35.35712,0.7201 52.69686,0.8866 m -54.24004,-63.136 c -0.61175,19.8551 0.34794,40.0217 2.20613,59.9289 8.62045,-0.1741 17.37621,-0.3873 26.22795,-0.673 m -24.9948,6.1857 c 14.06713,0.408 28.87864,-0.03 44.1785,-1.0761 m -50.00996,-61.909 c -0.56313,19.2436 0.091,38.3199 1.39384,57.2333 6.04309,-0.095 12.14233,-0.204 18.28323,-0.3271 m -13.2335,1.3644 c 14.74329,-0.1409 28.95737,0.1775 42.80228,0.8798 m -40.77029,-58.7627 c 0.57048,21.5729 0.21533,42.1059 -0.36276,62.0687 9.27955,-0.5466 18.51384,-1.2089 27.76714,-1.9441 m -26.70111,-3.4692 c 15.47333,0.7275 31.51969,1.062 47.91828,1.504 m -49.3682,-54.9954 c 0.9874,20.3594 0.80156,40.2808 0.50478,60.0694 7.21809,-0.1025 14.4214,-0.2227 21.66161,-0.3458 m -25.14833,-4.6106 c 16.93026,0.4227 33.08946,0.2057 49.01166,-0.3571 m -53.61108,-63.1793 c 0.76621,20.4155 1.06577,41.7904 1.74839,64.3418 7.89674,0.8784 15.84813,1.9247 23.89993,3.1505 m -17.78665,-6.2181 c 13.6999,0.6955 27.60871,1.2943 41.43107,2.1735 m -44.49775,-55.6575 c 0.11533,19.1789 -0.36357,38.977 -1.30387,58.8371 6.30746,0.048 12.56285,0.1025 18.77123,0.1431 m -18.6349,-2.0261 c 16.25827,0.465 33.11901,0.725 50.38177,1.1185 m -45.88128,-61.9674 c 0.42462,22.1989 0.31422,42.8899 0.2171,62.6376 10.6381,-0.9833 21.2794,-2.1943 31.98894,-3.566 m -30.89245,0.6554 c 16.45119,0.3908 32.99387,0.8332 49.67445,1.614 m -58.85849,-61.4021 c 0.10994,20.2496 0.79393,39.9593 2.18316,59.3285 7.83357,-0.2556 15.76113,-0.5566 23.78905,-0.8933 m -24.95855,1.7696 c 16.72308,-0.36 33.38241,-0.5323 50.36985,-0.7723 m -48.5225,-58.4874 c 0.28456,21.1854 0.0902,42.2184 -0.23038,62.7798 9.91034,-0.4107 19.79285,-0.9252 29.684,-1.5767 m -27.28137,-4.1109 c 16.00921,-0.811 32.70238,-0.6282 49.74033,-0.057 m -54.56737,-57.1181 c 0.0587,21.0851 0.0626,41.4064 0.0758,60.4997 10.11913,-1.1164 20.24033,-2.5054 30.3703,-4.2157 m -25.23015,8.3524 c 16.3288,-0.1754 33.17324,-0.2017 50.30012,-0.2099 m -49.70332,-71.3119 c 0.61209,21.8009 0.31389,43.4424 -0.18367,65.9952 8.77903,0.7099 17.52116,1.5885 26.28301,2.7211 m -22.17395,-0.3007 c 13.43732,-0.021 26.94548,0.1126 40.39642,0.3866 m -44.10321,-60.2592 c 0.29847,20.0343 0.40301,40.7363 0.66494,61.4036 8.60608,0 17.2388,0 25.92263,-0.052 m -21.94922,1.449 c 13.67657,0.2718 27.66817,0.2458 41.68684,0.064 m -51.13472,-60.4612 c -0.008,20.6812 0.44114,40.0565 1.33991,58.5659 8.0863,-0.6752 16.2382,-1.4767 24.45531,-2.38 m -24.73908,-4.1126 c 16.6979,-0.5532 33.94871,-0.2468 51.45378,0.4852 m -49.88035,-52.8458 c -0.25831,20.9492 0.18744,40.9644 1.05334,61.0086 7.61557,-0 15.28681,-0.01 23.00003,0.045 m -17.06795,-4.111 c 15.53502,0.1321 30.88964,0.2061 46.17555,0.3063 m -56.1241,-0.8251 h 30.56329 m 5.6743,0 h 27.26797 m -39.0207,0 h 28.33672"
       id="path59"
       inkscape:path-effect="#path-effect62"
       inkscape:original-d="m 634.99998,1283.2292 v 66.1458 h 53.51667"
       sodipodi:nodetypes="ccc"
       transform="translate(7.5162219,-13.945879)" />
    <path
       style="fill:none;stroke:#666666;stroke-width:0.600001;stroke-linecap:round;stroke-miterlimit:3.9;stroke-dasharray:none"
       d="m 643.2302,1088.7976 c 6.9381,-0.2231 13.7406,-0.357 20.44219,-0.4287 8.89463,-0.095 17.6115,-0.081 26.2317,-0.02 -9.01868,0.061 -18.13402,0.1674 -27.26492,0.257 -0.0892,2.5517 -0.17969,5.102 -0.26954,7.6495 m 8.95141,-10.9294 c -4.02135,-0.066 -8.01057,-0.1119 -11.97105,-0.14 -0.0893,19.8344 0.5592,40.1233 1.50521,60.5121 m -3.48952,-15.1498 c -0.31298,7.0973 -0.47655,14.1819 -0.53421,21.237 -8.88987,-0.2029 -17.62177,-0.4498 -26.27493,-0.7713 8.98217,-0.3214 18.04302,-0.7172 27.1034,-1.2182 m -14.04383,0.9124 c 11.7594,0.3777 23.23788,0.5695 34.61633,0.7035 m -37.22955,-68.0311 c 5.81376,-0.1475 11.76377,-0.2679 17.83284,-0.3759 8.93007,-0.159 18.11794,-0.291 27.50886,-0.4425 -8.24797,-0.1515 -16.29287,-0.3226 -24.18944,-0.5596 0.48369,4.4982 1.00813,8.9783 1.56544,13.4336 m 4.24917,-7.6816 c -2.6428,0.072 -5.2624,0.1177 -7.86019,0.1384 -0.30127,22.2267 1.01091,42.6025 3.03673,61.9491 -0.8259,-0.1114 -1.65058,-0.2246 -2.47411,-0.3395 m -4.07981,-15.7361 c -0.14498,4.9542 -0.20927,9.8974 -0.20259,14.8296 -8.80754,-0.036 -17.38996,-0.1067 -25.80208,-0.2121 11.63778,-0.1328 23.54651,-0.3206 35.6162,-0.5625 m -13.23351,1.3644 c 11.78051,-0.1125 23.2238,0.068 34.41083,0.5025 m -43.69339,-61.0027 c 7.31869,0.1336 14.53254,0.1493 21.66834,0.065 8.83071,-0.1041 17.54187,-0.3612 26.18427,-0.7373 -8.99649,-0.3761 -18.06175,-0.8712 -27.14502,-1.4514 -0.17801,5.559 -0.36422,11.0794 -0.54303,16.5714 m 6.39522,-21.3209 c -2.59136,0.1171 -5.16795,0.2241 -7.73068,0.323 -0.19055,22.9076 0.66262,45.2111 1.97001,68.2599 -5.39601,0.2602 -10.76128,0.5709 -16.10618,0.9557 m 15.94052,-4.2977 c 0.125,2.5773 0.23119,5.1475 0.32074,7.7114 -8.50859,0.081 -17.21777,0.085 -26.03741,0.037 16.03545,-0.086 31.70576,-0.342 47.55282,-0.6114 m -45.17877,-70.7564 c 6.51132,0.1626 12.90816,0.2304 19.22115,0.2201 8.95814,-0.014 17.74743,-0.1861 26.45535,-0.4666 -8.93096,-0.2805 -17.9433,-0.67 -26.94951,-1.1202 -0.13044,5.8445 -0.25789,11.6593 -0.35256,17.4608 m 3.23125,-18.9536 c -1.87434,0.018 -3.75301,0.046 -5.63525,0.082 0.74587,22.4593 1.03444,46.0834 1.96649,71.154 -3.70434,0.5301 -7.38887,1.1047 -11.04766,1.7254 m 14.78061,-15.5783 c -0.11942,3.2724 -0.22876,6.5401 -0.33115,9.8071 -9.10885,0.4152 -18.16212,0.8248 -27.23024,1.3184 12.21139,0.7033 24.39264,1.5775 36.34005,2.8824 m -14.86718,1.0218 c 7.71005,-0.2095 15.32789,-0.3272 22.86299,-0.3846 m -36.7278,-67.9606 c 5.41962,0.155 10.90633,0.287 16.45265,0.4088 8.87416,0.1948 17.90091,0.3631 27.0495,0.5568 -8.4903,0.1936 -16.85875,0.4125 -25.13608,0.7084 0.4554,7.6575 0.97511,15.3693 1.5409,23.166 m 5.25451,-20.4417 c -0.97682,0.021 -1.95477,0.038 -2.93378,0.052 0.38194,22.3658 0.23984,43.2084 0.14496,63.1162 -8.85739,-0.8563 -17.70723,-1.8622 -26.51294,-2.98 0.57146,-0.072 1.14312,-0.1451 1.71496,-0.2184 m 22.25875,0.4208 c 2.5e-4,0.08 4.9e-4,0.1601 7.4e-4,0.2402 -8.79138,0.2104 -17.55559,0.4364 -26.28593,0.7223 16.93585,0.5436 33.99411,1.3039 51.22081,2.5862 M 633.547,1083.9402 c 7.85963,0.07 15.80634,0.059 23.84789,-0.023 9.07301,-0.092 18.26674,-0.2739 27.59233,-0.5279 -8.31329,-0.2539 -16.49473,-0.5802 -24.53318,-0.9619 0.1718,1.8561 0.35053,3.7096 0.53629,5.5606 m 9.74974,-4.0508 c -4.65103,-0.1072 -9.3076,-0.1978 -13.95943,-0.2784 0.74561,21.679 1.59077,43.5653 3.52401,65.0127 -2.90924,-0.087 -5.79572,-0.1831 -8.65645,-0.2904 m 8.21023,-8.0659 c 0.0656,4.8814 0.10571,9.7547 0.12474,14.6161 -8.78545,-0.1392 -17.63822,-0.3166 -26.53373,-0.5545 15.52461,-0.4223 30.91443,-1.0353 46.30689,-1.9636 m -44.25967,-70.6435 c 7.48982,-0.3794 15.13012,-0.542 22.88562,-0.5493 8.86846,-0.01 17.88756,0.1864 27.00458,0.4923 -8.52186,0.306 -16.94581,0.7231 -25.32458,1.1595 0.36565,7.6799 0.76241,15.373 1.16015,23.0268 m 2.84457,-16.9165 c -2.28153,-0.04 -4.56369,-0.089 -6.84639,-0.1473 0.049,21.4881 0.0475,42.1179 0.0648,61.3861 -7.23344,-0.9129 -14.46484,-1.9726 -21.69175,-3.1968 m 23.40662,3.1504 c -0.0318,1.7157 -0.058,3.433 -0.0789,5.1518 -8.92572,-0.077 -17.71362,-0.1164 -26.39818,-0.137 16.05784,-0.037 32.44803,-0.014 48.97171,-0.045 m -36.1086,-74.7275 c 6.04879,0.2525 12.02563,0.4924 17.94631,0.7435 8.88545,0.3769 17.64443,0.7789 26.33033,1.2866 -8.95298,0.5077 -17.97902,1.1211 -27.02474,1.9205 -0.1637,6.9585 -0.33769,14.0145 -0.50175,21.1983 m 6.9484,-19.4415 c -1.69544,-0 -3.38981,-0 -5.08334,-10e-4 -0.39672,22.0741 -0.64658,44.5422 -1.29194,67.3489 -0.0523,0 -0.10462,0 -0.15693,0.01 m 0.68237,-14.2078 c 0.0727,4.8801 0.1339,9.7997 0.18866,14.7488 -8.72344,-0.1441 -17.46663,-0.1976 -26.20224,-0.2153 15.44837,-0.031 30.9196,0.047 46.55657,-0.054 m -37.91736,-64.6968 c 6.24795,0.1242 12.5616,0.1857 18.91351,0.1985 8.63354,0.017 17.33779,-0.055 26.04388,-0.1837 -8.9328,-0.1283 -17.86375,-0.3121 -26.8617,-0.5169 -0.0171,0.8268 -0.0349,1.6533 -0.0533,2.4797 m 8.82315,-1.5416 c -4.76872,0.095 -9.51221,0.1175 -14.23054,0.074 0.2246,21.8461 0.98723,42.2706 2.27915,61.8391 -1.13471,-0.1356 -2.26784,-0.2738 -3.39939,-0.4144 m 0.0764,-21.6961 c -0.12814,5.6712 -0.19127,11.4439 -0.20139,17.3003 -8.83467,-0.01 -17.54931,0.1754 -26.1848,0.4877 17.06299,0.5918 34.41025,1.6498 51.76355,2.7659 m -47.33394,-61.3076 c 8.41021,0.3792 16.94746,0.59 25.59,0.706 8.94636,0.12 18.00554,0.1386 27.1534,0.1375 -8.49102,-10e-4 -16.89337,-0.022 -25.23118,0.02 0.0654,1.2036 0.13203,2.4083 0.19977,3.6144 m 19.75141,-7.7048 c -5.4792,0.048 -10.98147,0.088 -16.50176,0.1241 0.0689,22.1937 -0.14789,44.3303 -0.33152,66.6583 -0.0444,6e-4 -0.0888,0 -0.13317,0 m -3.29933,-21.822 c 0.13589,6.8216 0.15,13.7014 0.0598,20.6387 -8.93599,0.1426 -18.0461,0.381 -27.29273,0.7131 14.15408,0.5602 27.91983,1.3872 41.47765,2.4714 m -43.51736,-73.2198 c 8.46042,-0.094 16.99931,-0.1136 25.5888,-0.077 8.81066,0.038 17.67454,0.1348 26.56156,0.2717 -8.75188,0.1369 -17.48062,0.3136 -26.21634,0.5108 0.0485,5.2184 0.0946,10.4436 0.13252,15.6718 m 17.56184,-15.6194 c -3.57282,0.031 -7.18469,0.078 -10.82954,0.1437 0.53915,22.4355 -0.0698,45.4996 -0.57395,69.4421 -3.80547,0.3196 -7.60797,0.6642 -11.40146,1.035 m 3.19892,-8.4219 c -0.045,4.1869 -0.0627,8.3563 -0.0554,12.5114 -8.80381,0.087 -17.49249,0.1086 -26.08708,0.098 16.05893,-0.019 32.41448,-0.1403 48.94887,-0.1794 m -44.88835,-76.6715 c 7.39685,-0.3589 14.94991,-0.5426 22.60696,-0.6082 8.74113,-0.075 17.61777,0 26.55227,0.1518 -7.20087,0.1222 -14.36215,0.2914 -21.52782,0.4596 m 21.99611,5.1644 c -6.44729,-0.062 -13.08608,-0.1306 -19.89391,-0.2122 -0.5607,21.7775 -2.98586,43.4087 -6.45268,64.6316 -4.78855,-0.1549 -9.61378,-0.3242 -14.47027,-0.5097 m 18.78273,-11.0318 c 0.19974,5.6574 0.35015,11.2888 0.46794,16.9021 -8.6326,0.085 -17.34728,0.1245 -26.07732,0.1503 17.76528,0.051 35.4695,0.048 53.64179,0.2419 m -57.55037,-74.7001 c 8.20751,0.083 16.51059,0.2353 24.90863,0.4716 9.02427,0.2539 18.15817,0.6053 27.40093,1.0737 -7.00783,0.3911 -13.93982,0.8637 -20.79643,1.4294 m 14.94884,5.8097 c -7.08513,0.125 -13.969,0.1536 -20.68567,0.1013 0.30622,21.8792 2.3644,42.9103 5.01904,63.6158 -0.67072,-0.047 -1.34071,-0.093 -2.01005,-0.1405 m -4.04139,-23.6281 c -0.18937,6.8479 -0.22292,13.8855 -0.12639,21.0736 -8.70012,0.066 -17.20149,0.3617 -25.55276,0.8141 16.32705,0.7951 33.11796,2.0736 50.10845,3.4352 m -42.56239,-66.3388 c 8.49062,-0.017 17.03826,-0.024 25.62157,-0.025 8.80432,-0 17.64619,0 26.50257,0.01 -7.7193,0.01 -15.42738,0.011 -23.13987,0.015 m 15.14348,-3.9365 c -7.0493,0.2485 -14.00574,0.3913 -20.90432,0.4599 -0.35867,18.9418 -0.27328,37.3134 -0.48762,55.7801 m 0.72836,-19.2645 c -0.40052,9.0514 -0.56045,18.1782 -0.57117,27.3546 -8.82977,0.017 -17.52118,0.08 -26.15585,0.1666 6.22514,0.06 12.47741,0.1305 18.72983,0.2048 m -18.47328,7.1099 c 16.10918,0.524 32.60188,0.2934 49.42843,-0.3295 m -50.12667,-70.5151 c 8.77826,-0 17.57359,0.024 26.39094,0.081 8.88296,0.058 17.78827,0.1466 26.72099,0.2665 -8.70617,0.1198 -17.38494,0.2709 -26.03124,0.4532 0.12705,6.6052 0.27158,13.2272 0.43558,19.8662 m 5.56992,-21.2623 c -3.15541,-0.066 -6.31137,-0.1191 -9.46521,-0.1612 0.64794,21.7626 1.39307,44.0318 3.06562,66.2336 -4.71841,0.035 -9.38708,0.067 -13.99571,0.088 m 16.17825,-12.5419 c -0.001,3.1874 -0.0297,6.3766 -0.0853,9.567 -8.97189,-0.064 -18.14816,-0.1198 -27.5296,-0.1825 15.44203,-0.1174 30.16654,-0.2596 44.16834,-0.5284 m -33.58624,-61.0937 c 5.88423,-0.1451 11.64088,-0.2937 17.29187,-0.4582 8.85343,-0.2578 17.44753,-0.5548 25.86668,-0.9394 -9.21974,-0.3846 -18.61443,-0.8568 -28.09971,-1.4649 -0.60357,7.4435 -1.28159,14.7753 -1.9712,21.9594 m 3.01524,-24.8626 c -0.81721,-0.029 -1.63395,-0.057 -2.45026,-0.083 -0.40557,21.3295 -0.47843,43.761 -0.79631,66.241 -8.37564,0.1616 -16.78565,0.3299 -25.26034,0.4498 m 27.84163,4.5729 c 0.006,0.4625 0.0123,0.9244 0.0183,1.3857 -8.70177,0.1801 -17.43106,0.137 -26.16358,-0.086 16.40574,-0.41 32.80051,-1.4293 49.33608,-2.785 m -11.25569,1.2441 h -30.56328 m 16.11707,0 h 27.26797 m -48.88633,0 h 28.33672"
       id="path62"
       inkscape:path-effect="#path-effect64"
       inkscape:original-d="m 634.99997,1084.7917 h 26.45833 26.45833 -26.45833 v 66.1458 h -26.45833 52.91666"
       transform="translate(1.975602,281.41575)"
       sodipodi:nodetypes="ccccccc" />
    <path
       style="fill:none;stroke:#666666;stroke-width:0.600001;stroke-linecap:round;stroke-miterlimit:3.9;stroke-dasharray:none"
       d="m 639.29169,1519.3705 c 8.98558,-19.4189 16.69255,-37.9961 24.12532,-56.516 2.27206,5.9747 4.51709,11.9551 6.76618,17.9168 m -10.38302,-20.8999 c 0.0238,-0.059 0.0475,-0.118 0.0713,-0.1771 8.25022,20.3567 17.5429,41.3762 27.25076,62.5531 -0.53747,-1.2127 -1.07338,-2.4248 -1.60788,-3.6364 m -6.06562,-6.4172 c 1.29496,3.4135 2.63061,6.8236 4.00079,10.2277 -4.49466,-9.0122 -8.75643,-18.0641 -12.89355,-27.1974 -6.48027,-0.2103 -12.90453,-0.4571 -19.3054,-0.753 m -14.04117,18.8709 c 8.72985,-17.4726 16.60357,-35.5204 24.58257,-53.4458 4.70838,11.1383 9.45522,22.3213 14.45284,33.703 m -13.51369,-27.8243 c 6.98219,17.5743 15.41814,35.4368 24.70909,53.0795 -3.01524,-7.9939 -5.86259,-16.031 -8.59414,-24.1554 m 5.94604,25.5908 c -3.8756,-7.2437 -7.50755,-14.7638 -10.94385,-22.5164 -8.95903,-0.3037 -17.68022,-0.8898 -26.22788,-1.6992 m -15.47402,18.3033 c 7.66482,-19.168 16.7647,-38.533 26.57176,-58.0899 1.84445,3.625 3.71496,7.2429 5.6064,10.8538 m -3.01477,-5.4102 c 0.65326,-1.4551 1.30027,-2.9049 1.94124,-4.3493 8.71818,20.081 16.26362,41.1951 23.19634,63.0763 m -1.38043,-10.6159 c 2.30313,5.2396 4.54211,10.4074 6.72978,15.5119 -4.20467,-8.8735 -8.56814,-17.9429 -13.02042,-27.1621 -7.23552,-0.2897 -14.5177,-0.6581 -21.81987,-1.0877 m -17.44594,13.5236 c 7.43905,-17.2371 15.77149,-35.0846 24.57262,-52.5703 4.60048,10.0919 9.33472,20.287 14.13797,30.7336 m -10.86902,-19.5749 c 8.80283,18.9169 16.41757,37.3903 23.92675,55.7312 -3.24172,-6.5829 -6.49686,-13.1827 -9.71637,-19.7852 m 3.93901,13.6322 c -3.6262,-8.1742 -7.51055,-16.5626 -11.5496,-25.1082 -6.37469,-0.087 -12.82177,-0.2471 -19.30813,-0.4628 m -23.32495,21.5104 c 9.42361,-19.7254 18.30976,-38.346 27.70872,-55.5932 2.60758,6.4404 5.25645,12.9913 7.97058,19.659 m -4.95285,-20.9715 c 0.29695,-0.7211 0.59462,-1.4426 0.89293,-2.1642 7.86852,21.8118 16.21696,43.4344 23.87917,66.3565 -0.57599,-0.9609 -1.15393,-1.9181 -1.73399,-2.8714 m -1.97085,-7.3862 c 1.65155,3.7653 3.27599,7.5587 4.87463,11.3749 -4.33132,-8.9686 -8.80251,-17.8139 -13.39702,-26.604 -8.99398,0.026 -18.08526,0.096 -27.26226,0.1611 m -12.20171,19.0578 c 7.81704,-18.3338 16.57125,-36.988 25.87104,-55.3039 4.40123,9.4745 8.93002,19.0281 13.5421,28.7353 m -7.48441,-21.4692 c 8.49897,19.7287 16.50276,38.0617 24.49958,55.502 -4.3093,-9.6883 -8.62012,-19.5724 -12.88236,-29.6005 -1.71419,-0.2116 -3.42689,-0.4275 -5.13784,-0.6477 m 12.78384,21.5952 c -3.35156,-6.7952 -6.68267,-13.5788 -9.98842,-20.3206 -8.51986,0.264 -17.00854,0.5796 -25.45936,0.9878 m -18.16407,20.2503 c 8.33836,-18.8703 17.2907,-38.3179 27.00212,-58.1224 3.04322,5.8844 6.16412,11.7322 9.36747,17.5507 m -12.53313,-16.2857 c 0.0493,-0.1078 0.0986,-0.2156 0.14791,-0.3233 9.45455,20.2335 18.79354,40.8256 29.0645,61.0915 -2.72354,-6.8688 -5.34447,-13.7734 -7.82452,-20.739 m 7.60974,25.0441 c 0.26772,0.6094 0.53497,1.2187 0.80176,1.8279 -4.14891,-8.9386 -8.39548,-17.9106 -12.70612,-26.9468 -6.79277,-0.1497 -13.61606,-0.33 -20.45882,-0.5511 m -18.23007,13.8844 c 7.43848,-19.5863 15.91402,-37.6785 24.78857,-55.3888 5.32514,11.9951 10.80045,24.134 16.2786,36.1598 m -15.16133,-21.5384 c 7.65679,17.7875 15.26762,34.934 22.88176,51.0824 -4.25992,-9.8084 -8.51902,-19.8645 -12.7712,-30.2126 -2.11308,-0.3302 -4.22584,-0.674 -6.33822,-1.0318 m 16.99379,26.8716 c -3.11138,-6.2453 -6.1351,-12.4654 -9.08751,-18.6693 -8.73736,-0.039 -17.35782,-0.052 -25.89573,-0.058 m -9.72162,17.0279 c 9.48074,-19.498 17.92735,-39.177 26.20067,-57.7407 2.75543,7.671 5.4906,15.4724 8.23991,23.4559 m -7.38566,-20.1972 c 0.16107,-0.3928 0.32221,-0.7854 0.48342,-1.178 8.26888,20.711 16.72201,41.8348 24.78467,63.3127 -0.39721,-0.7432 -0.795,-1.4859 -1.19338,-2.228 m -3.25139,-8.4877 c 1.69471,3.7692 3.38126,7.5664 5.06268,11.3854 -4.1547,-8.9987 -8.33699,-17.8797 -12.5092,-26.7177 -9.39269,-0.018 -18.77594,0 -28.11556,-4e-4 m -8.0091,22.4049 c 7.39853,-18.519 15.45907,-37.6686 23.30435,-57.0079 1.6241,3.9438 3.23849,7.879 4.83477,11.8099 m -12.02467,-7.6934 c 0.49039,-1.1126 0.98248,-2.2302 1.47627,-3.3525 8.74507,21.0026 18.05083,40.4332 27.90799,58.8916 -1.65058,-4.309 -3.28096,-8.6536 -4.89119,-13.0297 m -1.12379,-0.135 c 1.008,2.4587 2.03048,4.9398 3.06616,7.4417 -4.3815,-8.9837 -8.59699,-17.7074 -12.70271,-26.2532 -8.47016,0.2406 -16.85554,0.6185 -25.19434,1.0782 m -10.54976,31.5007 c 8.4216,-19.1905 17.68775,-39.5014 27.42546,-59.6675 2.33775,4.9715 4.7039,9.9517 7.09293,14.9593 m -4.71335,-15.3181 c 0.5473,-1.2237 1.09323,-2.4478 1.63787,-3.6723 8.88455,20.9095 17.40924,41.7105 25.91183,62.6665 -1.68922,-3.3883 -3.37908,-6.7721 -5.06793,-10.1501 m -2.01498,0.4588 c 1.24604,2.824 2.46749,5.6597 3.66596,8.5072 -4.22252,-8.752 -8.67997,-17.3846 -13.32046,-25.9007 -9.84597,0.2935 -19.86344,0.6962 -30.00534,1.2053 m -12.48361,19.3219 c 8.36276,-20.4327 17.23901,-40.3787 26.16196,-60.1395 3.70328,8.8048 7.41499,17.643 11.09929,26.4916 m -3.90176,-24.7652 c 9.4562,20.4421 17.56161,41.4663 25.55586,63.3198 -3.45238,-6.2371 -6.91784,-12.3766 -10.34638,-18.4086 m 1.5308,23.4397 c 0.11287,0.2823 0.2259,0.5646 0.33906,0.8467 -4.36304,-8.6534 -8.57225,-17.405 -12.65698,-26.2098 -9.46137,0.014 -18.80222,-0.022 -28.05048,-0.067 m -9.7426,12.6657 c 7.58077,-20.674 16.36377,-39.999 25.23415,-59.1966 0.97367,2.2751 1.94845,4.5518 2.92275,6.8284 m 0.63725,5.9579 c 1.15093,-2.5109 2.27001,-5.0229 3.35878,-7.5364 8.82483,20.4986 15.55925,40.8937 21.07515,60.9077 -4.40564,-7.1209 -8.95202,-14.2859 -13.60491,-21.5057 m 13.96039,20.5859 c 0.86971,1.9341 1.73266,3.8647 2.58968,5.7921 -3.97389,-8.6789 -8.0819,-17.4288 -12.23242,-26.2069 -6.43777,0.027 -12.89433,0.043 -19.34275,0.058 m -24.78323,14.2742 c 8.39513,-19.2357 17.42708,-38.015 27.08504,-56.0649 1.42932,3.1654 2.87295,6.3475 4.33085,9.5472 m -7.3815,2.8718 c 0.76563,-1.9348 1.55131,-3.8792 2.35598,-5.8328 8.19626,20.947 18.46738,40.8976 29.58892,60.4056 -1.63437,-4.7668 -3.22678,-9.5554 -4.79064,-14.3598 m -3.17533,3.2279 c 1.04581,2.5614 2.11738,5.154 3.21301,7.7754 -4.35743,-9.0107 -8.44121,-17.6946 -12.31756,-26.1518 -6.64308,0.2558 -13.18273,0.6246 -19.64227,1.0711 m -11.03493,24.1873 c 7.98531,-19.145 16.3045,-38.2316 24.65528,-57.3216 1.70859,4.0253 3.41856,8.0504 5.12714,12.0748 m -8.61309,-12.3128 c 0.47548,-1.181 0.95461,-2.3662 1.4371,-3.5552 7.87892,21.4206 16.70541,41.7452 25.19821,62.1197 -0.75621,-1.5594 -1.51434,-3.1184 -2.27494,-4.6767 m -1.87339,-8.59 c 1.42649,3.7874 2.90261,7.5902 4.4198,11.4063 -4.48026,-8.8667 -8.73272,-17.6604 -12.86924,-26.4126 -9.48664,0.066 -18.86165,0.1718 -28.23072,0.2879 m -11.69729,28.099 c 8.07737,-18.2341 16.77363,-37.6949 25.99107,-57.6277 3.92494,7.8123 7.94856,15.5352 12.06281,23.2309 m -10.55416,-23.9562 c 8.32419,19.7056 16.75019,39.5918 25.35002,59.6614 -4.11233,-8.6564 -8.18816,-17.2743 -12.22054,-25.8534 -1.65099,0.042 -3.30069,0.084 -4.94906,0.128 m 11.3836,19.8372 c -3.2639,-7.3915 -6.53075,-14.7054 -9.76073,-21.969 -7.54473,-0.034 -15.05465,-0.021 -22.4932,0.016 m 27.0172,4.9003 11.81793,28.186 m -19.42222,-32.4089 h -27.26797 m 37.73842,13.108 -12.33765,-25.5098"
       id="path64"
       inkscape:path-effect="#path-effect66"
       inkscape:original-d="m 634.99997,1521.3541 26.84107,-62.1908 26.07559,62.1908 -12.79636,-26.4583 h -29.113"
       transform="translate(5.197011,-6.918605)"
       sodipodi:nodetypes="ccccc" />
    <path
       style="fill:none;stroke:#666666;stroke-width:0.600001;stroke-linecap:round;stroke-miterlimit:3.9;stroke-dasharray:none"
       d="m 633.0807,1605.07 c 2.18782,-22.9055 2.86298,-44.8152 3.31793,-66.7384 2.73938,3.6446 5.46923,7.2886 8.20119,10.9229 m -11.86829,-8.5886 c 0.064,-1.8805 0.13508,-3.7566 0.21291,-5.6284 8.81754,10.9944 18.03903,22.2423 27.50159,33.6124 4.98057,-6.0015 10.03112,-11.9675 15.12619,-17.9186 m -12.94409,12.5141 c 6.56498,-9.3275 13.51175,-18.6873 20.66263,-28.1481 0.94618,12.9035 2.16383,25.6727 3.38041,38.2022 m 1.5764,-15.7359 c 1.69515,15.9917 2.85924,31.6297 3.96223,47.2505 m -63.20316,-7.1115 c 0.52579,-22.0402 2.81152,-43.7314 6.05962,-65.7504 4.85786,5.0692 9.80917,10.1067 14.8298,15.0918 m -16.1501,-8.0836 c 0.011,-0.4582 0.0227,-0.9172 0.0353,-1.3772 8.59576,11.5165 17.91011,22.2171 27.6955,32.3279 7.14354,-9.2577 14.54975,-18.8443 22.11553,-28.6657 m -17.57123,13.028 c 5.40505,-7.3311 11.09308,-14.7011 17.00037,-22.1095 1.383,15.4653 3.38795,30.8217 5.71032,46.0714 m 2.43586,-15.3363 c 1.32674,15.617 2.02007,31.7836 2.28997,48.4008 m -58.5526,-4.8987 c 1.84574,-22.2165 2.6302,-45.6253 3.21606,-69.6497 4.81427,5.7716 9.60357,11.4659 14.40636,17.1084 m -16.43395,-20.9073 c 0.0156,-0.4287 0.0316,-0.8578 0.0481,-1.2871 8.73986,11.8086 17.94486,23.3076 27.45282,34.8681 9.14711,-10.7805 18.58801,-21.5013 28.16784,-31.808 0.18379,1.4971 0.36897,2.9983 0.5554,4.504 m -14.13926,15.3737 c 4.53811,-5.3283 8.93902,-10.7077 13.24521,-16.1263 1.62344,20.5179 2.39907,40.6867 3.46449,60.833 m -6.17397,-24.8339 c 1.11413,10.2522 1.93384,20.2596 2.58477,30.0914 m -64.53888,-9.6317 c 1.99048,-21.3207 3.45095,-41.552 5.40992,-60.4306 4.18785,5.6876 8.41841,11.491 12.71747,17.417 m -8.80791,-18.9262 c 0.011,-0.6443 0.0224,-1.2889 0.0343,-1.9337 8.46657,11.8592 17.13164,23.6374 25.69245,35.7209 5.51828,-6.8961 10.99093,-13.6587 16.33029,-20.1757 m -8.57698,13.844 c 6.20332,-8.2139 12.25259,-16.2672 18.16534,-24.2336 0.66128,16.2249 0.96262,32.6792 0.97909,49.0477 m -1.09336,-20.7222 c 0.61072,13.3685 1.59494,26.6103 2.85521,39.8903 m -55.8949,4.7795 c 1.73828,-22.9744 2.85217,-47.7087 4.03295,-73.4908 5.57046,6.0785 11.1506,12.0052 16.77849,17.8195 m -19.39833,-18.6468 c 0.0304,-0.5152 0.061,-1.0303 0.0916,-1.5454 9.04618,11.5125 18.16572,23.0723 27.38657,34.8701 8.86439,-10.547 17.82702,-20.8632 26.91461,-30.7665 0.35004,4.001 0.70857,8.03 1.07606,12.0902 m -18.87885,-1.7512 c 3.65973,-4.6336 7.36952,-9.3143 11.13274,-14.0369 1.85923,21.2961 4.41972,42.0417 7.84206,62.4809 m -5.98418,-18.4536 c 1.04238,10.4163 2.05642,20.9147 3.15536,31.4214 m -58.97771,-3.3597 c 1.51648,-22.6177 2.51061,-45.4015 3.38406,-68.7152 5.57353,6.7038 11.12707,13.3198 16.68769,19.8236 m -17.29875,-24.9709 c 8.47389,10.3306 17.45498,21.3921 26.72504,32.8039 9.02895,-10.7841 18.3453,-21.2198 27.73258,-31.6843 0.51061,4.5973 1.02806,9.1918 1.54586,13.7722 m -14.43726,4.2792 c 3.20777,-4.2181 6.4123,-8.4814 9.61452,-12.7965 1.7219,25.3509 3.3847,49.3797 5.10711,71.2264 m -60.06151,-0.8813 c 0.84003,-23.4716 2.68512,-46.6516 4.90443,-69.8984 6.60061,7.6832 13.26871,15.3544 19.95598,22.9861 m -17.04489,-31.5623 c 5.1e-4,-0.01 0.001,-0.011 0.002,-0.017 9.41553,11.7837 18.40272,23.4924 27.19112,35.4721 8.43853,-10.3679 16.68429,-20.4731 24.9565,-29.9855 0.0534,1.5927 0.10711,3.1914 0.1613,4.7965 m -10.4624,11.119 c 3.92247,-5.2421 7.86185,-10.4484 11.80349,-15.6203 0.81307,17.2678 1.64128,34.7665 2.22952,52.4698 m -0.44064,-14.3293 c 0.97672,12.1033 1.88041,24.4479 2.79122,36.8818 m -59.42081,-7.9897 c 0.37197,-20.9833 1.46009,-42.6487 2.27731,-64.5002 2.16846,2.6879 4.3295,5.3707 6.47861,8.0506 m -12.49393,-1.1103 c 0.11163,-2.0201 0.22799,-4.0538 0.34908,-6.1005 9.05617,11.2681 18.34039,21.9055 27.85025,32.0678 7.52597,-10.0008 15.20001,-20.3134 23.02083,-30.8549 m -16.51459,12.6524 c 5.64898,-7.8796 11.4713,-15.4888 17.41473,-22.9043 1.70429,23.8185 4.13792,48.8036 6.52903,73.8232 m -59.28294,0.194 c 0.91633,-21.0232 2.68264,-43.174 4.92232,-65.1751 3.58821,4.1437 7.20401,8.296 10.84209,12.4751 m -7.10441,-12.2988 c 0.092,-1.4014 0.18254,-2.8033 0.27163,-4.2057 9.11745,11.2815 18.08888,22.5191 27.00197,33.7814 7.19897,-9.3121 14.35793,-18.6074 21.52669,-27.8469 m -16.04718,14.9594 c 5.76209,-7.2178 11.30697,-14.3316 16.67617,-21.3435 0.86625,21.8259 0.76458,44.2128 0.23241,67.1323 m -1.15892,-32.1741 c 0.5932,12.2879 1.35261,24.7285 2.19168,37.2708 m -54.90138,-3.3936 c 2.3633,-23.8349 3.10559,-46.9712 3.8565,-69.0839 3.2843,4.6678 6.56905,9.3878 9.87302,14.1639 m -18.58642,-1.5972 c 0.10439,-2.3523 0.21802,-4.7105 0.34045,-7.0741 8.94717,11.3523 18.20939,22.5151 27.69646,33.6297 9.08428,-11.1677 18.38459,-22.3817 27.81596,-33.5089 m -17.24005,9.7335 c 4.89752,-7.2007 9.9886,-14.1841 15.20123,-21.0293 0.88,15.1322 2.14173,30.6986 3.3843,46.2601 m 5.67235,-10.1512 c 1.48482,15.8629 1.85481,31.6874 1.42155,47.3764 m -62.04693,-7.2146 c 2.02364,-21.9618 3.24723,-44.3457 4.7624,-66.6325 6.13486,7.488 12.32308,14.9937 18.65012,22.5579 m -23.93303,-30.0399 c 8.757,11.0126 17.79048,22.2234 27.09734,33.7104 6.79387,-7.787 13.74033,-15.4198 20.8381,-22.8658 m -10.93887,18.5095 c 5.17254,-6.9874 10.70002,-14.1447 16.50266,-21.4359 1.91596,20.2217 5.25583,39.7508 9.08037,59.0122 m -7.83715,-25.8676 c 0.46839,12.0865 1.42215,24.7627 2.72117,37.8167 m -54.27947,-0.8916 c 0.99692,-23.7668 2.42904,-47.4575 3.8465,-71.1641 0.89414,1.1016 1.78823,2.2032 2.68217,3.3048 m -5.3217,5.6054 c 0.056,-4.1241 0.14932,-8.2906 0.27097,-12.4915 8.62185,11.4372 17.56094,22.4894 26.48465,33.4543 4.18394,-5.5484 8.36432,-11.117 12.50421,-16.6727 m -10.0347,12.228 c 7.43948,-10.5056 15.37046,-20.8573 23.52609,-31.13 0.81988,11.0296 1.79796,22.1148 2.77655,33.2114 m -3.81951,-8.5084 c 1.21933,21.0229 3.04793,40.8427 5.3882,60.1908 m -61.54347,-10.9203 c 1.36023,-23.7556 2.84647,-47.2877 4.55788,-70.5924 5.85686,7.242 11.74657,14.5172 17.67465,21.8258 m -21.37598,-21.1574 c 0.0532,-0.6499 0.10633,-1.2993 0.15949,-1.9482 9.40998,10.8984 18.81948,22.0397 28.4569,33.2662 9.2746,-11.1096 18.77022,-22.1367 28.705,-33.232 0.20232,1.3082 0.40839,2.6157 0.61837,3.9226 m -12.26894,9.8384 c 4.29081,-5.6054 8.45247,-11.2019 12.4846,-16.7973 0.69213,26.0088 -0.428,52.0328 -3.38097,77.6639 m -53.25473,-0.4437 c 2.42409,-24.8931 2.47022,-49.8497 1.90365,-75.8817 3.82512,4.9149 7.59999,9.7415 11.36606,14.4562 m -12.78878,-11.6401 c 0.0641,-1.8999 0.13072,-3.7918 0.19943,-5.6765 8.75166,10.7656 17.63259,21.9765 26.48385,33.3427 8.50044,-10.9719 16.9721,-21.793 25.26321,-32.7403 0.0314,0.8202 0.0621,1.6399 0.0923,2.4592 m -11.58721,22.2478 c 4.94281,-6.0652 9.86244,-12.3111 14.77641,-18.7065 1.50265,19.9705 2.9676,38.9448 4.69643,57.4614 m -7.03127,-22.8768 c 0.26381,11.4869 0.92502,23.6833 1.79081,36.3739 m -63.43282,-7.7066 c 1.21967,-20.8897 2.92014,-41.9674 5.18678,-62.9348 3.37789,3.911 6.78695,7.8281 10.22827,11.7551 m -7.12974,-10.3038 c 0.0682,-1.1926 0.13499,-2.3852 0.20043,-3.5778 9.00754,11.0444 17.81534,22.0862 26.44737,33.0594 8.28455,-11.3589 16.39865,-22.7842 24.36518,-34.3389 0.0458,2.8207 0.0853,5.636 0.11885,8.4451 m -13.45905,9.1568 c 3.78631,-5.1063 7.70315,-10.213 11.71843,-15.3042 1.1653,20.8015 3.26009,41.7494 5.35318,63.3065 m -1.61414,-23.5871 c 0.42839,10.6502 1.25532,21.7582 2.38965,33.1539 m -54.01179,-10.2151 c 1.2255,-21.9534 1.13653,-42.6713 -0.20504,-62.656 2.41095,4.0186 4.76196,8.0724 7.05368,12.1559 m -12.50579,-4.8394 c 0.13314,-1.4873 0.26627,-2.9779 0.39971,-4.4718 9.48618,11.2548 19.00046,22.2099 28.81758,32.9494 9.35166,-11.4666 18.9908,-23.1379 29.17154,-34.9361 m -16.11382,15.1731 c 4.63866,-6.6306 9.36257,-13.0341 14.10859,-19.243 0.71662,21.7318 1.58229,44.7755 1.4929,68.5654 m 1.46588,-22.7217 c 0.98365,11.1765 1.7711,22.2165 2.45351,33.1214 m -15.84835,-61.7845 18.70605,-24.1702 m -3.95693,60.8727 1.73583,27.2127 m -3.18823,-49.982 1.80387,28.2792"
       id="path66"
       inkscape:path-effect="#path-effect68"
       inkscape:original-d="m 631.01873,1607.5779 3.98124,-72.9946 26.98789,33.5027 25.92877,-33.5027 5.04037,79.018"
       sodipodi:nodetypes="ccccc"
       transform="translate(5.197011,-6.918605)" />
  </g>
</svg>
